<?xml version="1.0" encoding="utf-8"?>
<!-- Generator: Adobe Illustrator 25.1.0, SVG Export Plug-In . SVG Version: 6.00 Build 0)  -->
<svg version="1.1" id="レイヤー_1" xmlns="http://www.w3.org/2000/svg" xmlns:xlink="http://www.w3.org/1999/xlink" x="0px"
	 y="0px" viewBox="0 0 330.8 69.8" style="enable-background:new 0 0 330.8 69.8;" xml:space="preserve">
<style type="text/css">
	.st0{fill:url(#SVGID_1_);}
	.st1{fill:url(#SVGID_2_);}
</style>
<g>
	<path d="M45.3,25.5c-0.5-0.5-0.9-1.1-1.3-1.6c-4.9,7.4-9,11.7-14.8,15.3c-0.2,0-0.2,0-0.2-0.1c0-0.1,0-0.1,0.1-0.2
		c4.9-4.8,9.3-10.7,12-16c0.4-0.7,0.5-1.1,0.5-1.5c0-0.1,0-0.4-0.1-0.8c0-0.2-0.1-0.5-0.1-0.7c0-0.3,0.1-0.5,0.3-0.5
		c0.1,0,0.3,0.1,0.5,0.2c1.5,1,2.4,2,2.4,2.8c0,0.1,0,0.3-0.1,0.7c8.6,8.3,11.2,10.2,17.4,12.8c0.2,0.1,0.5,0.2,0.5,0.2
		c0,0.1-0.2,0.2-0.5,0.3c-3.3,0.6-3.7,0.6-7.1,0.6l-0.4-0.1c-1.9-2.5-2-2.5-5.8-7.4L45.3,25.5z M37.3,47.7c-0.5-2.5-0.6-3-1.3-5.5
		c-0.2-0.8-0.3-1-0.5-1.4c-0.2-0.5-0.3-0.6-0.3-0.7c0-0.2,0.2-0.3,0.4-0.3c0.5,0,1.6,0.4,2.2,0.8c8.1-1,10.4-1.4,11.6-2h0.3
		c2,0.8,3.6,1.8,3.5,2.3c0,0.2-0.3,0.6-0.9,1.2c-0.4,0.7-0.6,1.1-1.4,2.8c-0.3,0.8-0.7,1.6-1.2,2.6c-0.1,0.2-0.1,0.3-0.2,0.4
		c-0.3,0.8-0.6,1-1.1,1c-0.2,0-0.5-0.1-0.9-0.3c-3.6,0.1-4.1,0.1-7.6,0.5c-0.1,0.5-0.3,0.7-0.6,0.7c-0.6,0-1.2-0.5-1.9-1.6
		L37.3,47.7z M46.6,32.3c1.8,0.5,2.3,0.6,2.8,1c0.3,0.3,0.6,0.6,0.6,0.8c0,0.3-0.3,0.5-0.9,0.6c-4.5,0.2-6.8,0.4-10.6,1.1l-0.2,0
		c-0.6-0.2-0.8-0.2-1-0.5c-0.2-0.1-0.3-0.2-0.4-0.3l-0.1-0.1v0c0,0,0.1,0,0.3-0.1c2.3-0.5,4.3-0.8,5-0.9c2.7-0.5,3.2-0.7,4.2-1.5
		L46.6,32.3z M39,44.6l0.7,2.8c3.3-0.4,3.9-0.5,7.4-0.8c0.8-2.6,0.9-3,1.6-5.4c0.1-0.2,0.1-0.4,0.1-0.6s-0.1-0.2-0.6-0.2
		c-2.5,0.3-4.3,0.6-5.2,0.7l-2.4,0.3l-2.4,0.3L39,44.6z"/>
	<path d="M89.3,19.6c1.6,0.7,2.9,1.7,2.9,2.3c0,0.1-0.1,0.2-0.2,0.6c-0.1,0.2-0.1,0.5-0.2,0.9l-0.1,0.8c-0.1,2.3-0.1,4.2-0.1,5.3
		c0,2.3,0,3,0.3,9.4l0.3,6.1v0.3c-0.6,2.9-0.7,3.4-1.4,4.3c-0.3,0.5-0.6,0.7-0.8,0.7c-0.3,0-0.3,0-1.2-1.2c-0.9-0.9-1.8-1.6-3.9-3.1
		c-0.3-0.2-0.5-0.3-0.5-0.5c0-0.1,0.1-0.1,0.3-0.2c0.6,0.1,1.2,0.1,1.4,0.2c0.8,0.1,1.6,0.2,2,0.2c1,0,1-0.2,1-2.5
		c0-8.5-0.1-12.6-0.5-20.7c0-0.8-0.1-0.9-0.9-0.9c-4.2,0.3-6.9,0.7-12.9,1.7c-2.4,0.4-2.7,0.4-5,0.6v2.7c0,2.2,0,2.5,0,5.5
		c0,2.6,0,4.5,0,5.7c0,1.1,0,2-0.1,9.2v0.5c-0.1,0.2-0.1,0.5-0.1,0.6c-0.1,0.9-0.3,1.2-0.7,1.2c-1,0-1.7-1.3-2.3-3.8v-0.2
		c0.4-1.6,0.5-2.1,0.6-3.6c0.4-5.4,0.5-9.4,0.5-13.8c0-0.9,0-2.3,0-4.1l0-0.6c0-0.3,0-0.5-0.2-1c0-0.2-0.1-0.4-0.1-0.4
		c0-0.1,0.1-0.2,0.2-0.2c0.1,0,0.2,0,0.3,0c1.1,0.4,1.2,0.5,1.6,1h1.1c0.4,0,0.8-0.1,1.1-0.1c2.9-0.5,5.8-0.9,8.7-1.3l5.5-0.8
		c1.5-0.2,2-0.3,2.9-0.8H89.3z M83.1,25.7c2.1,0.4,3.1,0.9,3.1,1.6c0,0.4-0.3,0.6-0.9,0.6c-4.5,0.3-6.4,0.7-11.5,1.8h-0.2
		c-0.6-0.1-0.7-0.1-1.3-0.4c-0.3-0.1-0.5-0.3-0.5-0.4c0-0.1,0.2-0.2,0.5-0.2c1.9-0.5,2-0.5,4.8-1.1c3.1-0.7,3.9-0.9,4.2-1
		c0.5-0.1,0.8-0.3,1.6-0.9H83.1z M82.8,32.2c1.3,0.5,2.5,1.3,2.9,2.1L85.2,35c-0.2,0.6-0.4,1-0.5,1.2c-0.4,1.1-0.7,1.9-0.8,2.1
		c-0.1,0.1-0.2,0.5-0.5,0.9c0,0.6-0.1,0.7-0.8,0.7c-2.8,0.2-4.1,0.3-6.1,0.8c-0.1,0.8-0.3,1.1-0.7,1.1c-0.5,0-0.9-0.5-1.6-1.7l0-0.2
		c-0.4-2-0.5-2.3-1-4.1l-0.1-0.3c-0.1-0.2-0.1-0.4-0.2-0.5c0-0.1-0.1-0.2-0.3-0.5c-0.1-0.2-0.2-0.4-0.2-0.5s0.2-0.2,0.5-0.2
		c0.5,0.1,0.6,0.1,1.1,0.3c0.4,0,0.6,0,0.8,0c1.4,0,5.5-1.1,7.6-2H82.8z M76.9,35c-0.3,0.1-1,0.2-1.8,0.3c0.5,1.8,0.6,2.1,1.3,4
		c3.9-0.6,4-0.7,5.4-1c0.2-1.3,0.3-1.7,0.6-3.5c0-0.6,0-0.7-0.6-0.7c-1.2,0.2-2.1,0.3-2.4,0.3L76.9,35z"/>
	<path d="M114.2,22.9c7.6,7.4,12.2,10.7,17.3,12.4c0.2,0.1,0.3,0.2,0.3,0.3s-0.1,0.2-0.3,0.2c-2.4,0.5-3.6,0.6-5,0.6
		c-0.3,0-0.9,0-1.6,0l-0.5-0.2c-1.2-1.4-2.5-3-3.7-4.2c-3.2-3.7-3.8-4.2-4.9-5.7c-0.7-0.8-1.4-1.7-2.1-2.5
		c-4.5,6.4-9.5,10.9-14.7,13.3c-0.1,0-0.3,0.1-0.4,0.1c-0.1,0-0.1,0-0.1-0.1c0-0.1,0.1-0.3,0.3-0.5c5.5-4.4,9.2-8.8,12.7-15.1l0-0.5
		v-0.3l-0.3-0.7c0,0,0-0.1,0-0.1c0-0.2,0.2-0.3,0.5-0.3c0.1,0,0.3,0,0.6,0.1c0.8,0.3,1.2,0.6,1.6,1c0.5,0.5,0.8,1.2,0.8,1.5
		c0,0.1,0,0.2-0.1,0.4L114.2,22.9z M113.7,39.8c-2.2,2.5-3.5,3.9-3.9,4.2c-0.6,0.7-0.9,0.9-1.8,1.8c2.1-0.3,2.3-0.3,4.7-0.8
		c2.2-0.5,4.2-0.8,5.9-1.2c-1-1.4-1.2-1.6-2.2-3c-0.1-0.2-0.3-0.5-0.3-0.6c0-0.1,0.1-0.1,0.2-0.1c0.1,0,0.3,0.1,0.5,0.2
		c3,2.1,3.7,2.6,5.6,4.2l0.3,0.3c0.6,1.4,0.8,2.2,0.8,3.1c0,1-0.3,1.4-1,1.4c-0.3,0-0.5-0.1-0.8-0.6c-1.3-2-1.4-2.3-2.6-4.2
		c-2.1,0.7-3.9,1.4-4,1.4c-4.2,1.4-7.2,2.4-9,3l-0.3,0.1c-0.1,0-0.2,0-0.2,0c-0.9,0.1-2.2-1.1-2.9-2.5c0-0.1,0-0.2,0-0.3
		c0-0.2,0.1-0.3,0.2-0.3c0.1,0,0.3,0,0.6,0.1c0.4,0.1,1,0.3,1.1,0.2l0.3,0c0.8-0.2,0.9-0.2,1.7-0.3c1.1-1.8,1.8-3.1,2.2-3.6
		c0.5-0.9,0.8-1.5,1.6-3.1c0.1-0.2,0.1-0.4,0.1-0.5c0-0.2-0.1-0.4-0.2-0.7c-2.3,0.4-2.8,0.5-5.7,1.2h-0.3c-1.1-0.4-1.3-0.5-2-1.2
		L103,38c3-0.5,5.5-0.9,6.6-1.1l7.8-1.3c0.9-0.1,1.1-0.3,2.2-1h0.3c2,0.6,3.2,1.4,3.2,2c0,0.4-0.3,0.6-1,0.7
		c-4.7,0.1-5.5,0.2-9.4,0.6c0.7,0.7,0.8,0.8,1.1,1.8L113.7,39.8z M115.1,30c1.8,0.3,2.7,0.8,2.7,1.5c0,0.3-0.2,0.5-0.7,0.6
		c-4.1,0.5-4.9,0.6-7.7,1l-0.2-0.1c-0.8-0.3-1-0.4-1-0.6c0-0.1,0-0.1,0.1-0.2c2.3-0.5,3.7-0.9,5.4-1.5c0.4-0.2,0.7-0.5,1.2-0.8
		H115.1z"/>
	<path d="M143.1,27.8c1.3,0.3,2.5,1.1,2.5,1.5c0,0,0,0-0.5,0.6l-0.3,0.5l-1.1,1.6l-1.6,2.2c0.2,0.3,0.2,0.3,0.4,0.7h1
		c0.5,0,0.9-0.1,0.9-0.1c0.9,0.1,2.2,1.5,2.2,2.5c0,0.3-0.3,0.6-0.7,0.6c-0.3,0-0.8-0.1-1.2-0.4c-0.2-0.1-0.6-0.4-1.2-0.8
		c-0.2-0.1-0.5-0.3-0.9-0.6v12.1c0,0.8-0.2,1.2-0.7,1.2c-0.7,0-1.4-0.9-1.9-2.5l0-0.2c0.5-1.8,0.8-5.6,0.8-10
		c-0.1-0.4-0.1-0.4-0.2-0.8c-1.8,2.1-3.2,3.3-6.6,5.5c-0.2,0.1-0.3,0.2-0.4,0.2c0,0-0.1,0-0.1-0.1c0-0.1,0.1-0.2,0.2-0.4
		c3.4-3.2,6.6-7.6,8.1-11l-0.1-0.1l-5.2,2.7l-0.3,0c-0.8-0.1-1.3-0.3-2.1-0.7c-0.1-0.1-0.2-0.1-0.2-0.2c0,0,0.2-0.1,0.5-0.2
		c1-0.3,1.6-0.6,1.8-0.7l3.9-1.7l1.5-0.6c0.5-0.2,0.8-0.5,1.3-0.9H143.1z M138.9,21.2c0-0.1,0.1-0.1,0.2-0.1c0.1,0,0.3,0,0.4,0.1
		c0.9,0.2,1.6,0.3,1.9,0.4c1.4,0.2,1.7,0.3,2.2,0.9c0.4,0.5,0.7,1.1,0.7,1.6c0,0.5-0.2,0.6-0.6,0.6c-0.5,0-1.5-0.3-2.3-0.8
		c-0.9-0.5-1.4-1-2.4-2.2C139,21.5,138.9,21.3,138.9,21.2z M153.4,24.7l-0.1-0.7c0-0.1-0.2-0.3-0.5-0.6c-0.4-0.4-0.8-0.9-0.8-1.2
		c0-0.2,0.2-0.3,0.6-0.4c2,0.1,3.6,0.9,3.6,1.8l0,0.4l-0.1,1.6c-0.2,3.7-0.2,4.3-0.3,7c1.8-0.3,1.9-0.3,2.9-1.1h0.3
		c2,0.4,3,0.9,3,1.6c0,0.4-0.4,0.6-1.1,0.7L158,34l-2.4,0.2l-0.3,9.4c4-0.3,4.8-0.6,5.7-1.3h0.2c2.3,0.4,3.6,1.1,3.6,1.9
		c0,0.5-0.5,0.8-1.6,0.8c-6.2,0-10.9,0.3-16.7,1.3h-0.2c-0.7-0.1-0.9-0.2-1.2-0.5c-0.3-0.2-0.5-0.4-0.8-0.7c-0.1,0-0.1-0.1-0.1-0.1
		c0,0,0.1-0.1,0.3-0.1c2.1-0.2,2.2-0.2,8.8-1v-9.4l-1.3,0.2l-2.5,0.5h-0.2c-0.9-0.2-1.3-0.5-1.8-1l-0.1-0.1c0,0,0,0,0-0.1
		c0,0,0.1,0,0.3-0.1c2.7-0.4,3.1-0.5,5.7-0.9V24.7z"/>
	<path d="M185.3,24.4v0.7c-2.6,0.1-3,0.7-3.1,3.7v10.4c0,5.8,2,8.3,6.7,8.3c2.6,0,4.8-0.8,6-2.3c1.1-1.3,1.7-3.5,1.7-6V28.9
		c0-3-0.6-3.6-3.2-3.8v-0.7h7.7v0.7c-2.3,0.1-2.9,0.9-2.9,3.8v9.9c0,3.7-1.1,6.9-3.1,8.5c-1.5,1.2-3.9,1.9-6.6,1.9
		c-3.1,0-5.8-1-7.1-2.7c-1.2-1.5-1.9-4.3-1.9-7.3v-9.1c0-4.2-0.5-5-3.2-5h-0.1v-0.7H185.3z"/>
	<path d="M206.3,24.4h10.2c5.4,0,8.2,2.2,8.2,6.3c0,2.8-1.4,5-3.7,6c-1.5,0.7-3.4,0.8-7.8,0.8h-0.4c-0.4,0-0.5,0.1-0.5,0.7v5.7
		c0,3.4,0.5,3.9,3.4,4v0.7h-9.5v-0.7h0.2c2.6,0,3.1-0.7,3.1-4V28.2c0-2.6-0.4-2.9-3.3-3.1V24.4z M212.4,35.2c0,1,0.2,1.2,1.8,1.2
		c2.2,0,4-0.2,4.9-0.6c1.8-0.8,2.8-2.5,2.8-5c0-3.7-1.9-5.1-7.1-5.1c-2,0-2.3,0.3-2.3,2.1V35.2z"/>
</g>
<linearGradient id="SVGID_1_" gradientUnits="userSpaceOnUse" x1="5.0173" y1="20.7264" x2="37.9799" y2="20.7264">
	<stop  offset="0" style="stop-color:#FFFFFF"/>
	<stop  offset="1" style="stop-color:#000000"/>
</linearGradient>
<polygon class="st0" points="5.5,37.2 5,36.7 37.5,4.2 38,4.8 "/>
<linearGradient id="SVGID_2_" gradientUnits="userSpaceOnUse" x1="327.1861" y1="49.0872" x2="294.2235" y2="49.0872">
	<stop  offset="0" style="stop-color:#FFFFFF"/>
	<stop  offset="1" style="stop-color:#000000"/>
</linearGradient>
<polygon class="st1" points="294.7,65.6 294.2,65.1 326.7,32.6 327.2,33.1 "/>
<g>
	<g>
		<path d="M228.8,47.6v-4.8h0.7v4.8c0,1.2,0.9,1.9,1.9,1.9c1,0,1.9-0.7,1.9-1.9v-4.8h0.7v4.8c0,1.6-1.2,2.6-2.6,2.6
			C230,50.2,228.8,49.2,228.8,47.6z"/>
		<path d="M240.2,47.2v2.9h-0.7v-2.8c0-1-0.6-1.6-1.4-1.6s-1.6,0.5-1.6,1.7v2.7h-0.7v-4.9h0.7V46c0.3-0.7,1.1-1,1.7-1
			C239.4,45,240.2,45.9,240.2,47.2z"/>
		<path d="M246,42.5h0.7v7.6H246v-1c-0.4,0.7-1.1,1.1-2,1.1c-1.4,0-2.5-1.1-2.5-2.6s1.1-2.6,2.5-2.6c0.8,0,1.6,0.4,2,1.1V42.5z
			 M246,47.6c0-1.2-0.9-2-1.9-2c-1,0-1.9,0.8-1.9,1.9c0,1.1,0.8,2,1.9,2C245.1,49.6,246,48.8,246,47.6z"/>
		<path d="M252.9,47.9h-4.2c0.1,1.1,0.9,1.7,1.8,1.7c0.7,0,1.3-0.3,1.6-0.9l0.6,0.3c-0.4,0.8-1.3,1.3-2.2,1.3c-1.4,0-2.5-1-2.5-2.6
			c0-1.6,1.1-2.6,2.5-2.6c1.4,0,2.4,1,2.4,2.6C252.9,47.7,252.9,47.8,252.9,47.9z M252.3,47.3c-0.1-1-0.8-1.6-1.8-1.6
			c-1,0-1.7,0.6-1.8,1.6H252.3z"/>
		<path d="M257.3,45.2l-0.1,0.6c-0.3-0.1-0.5-0.1-0.7-0.1c-1.2,0-1.5,1.3-1.5,2.5v1.9h-0.7v-4.9h0.7v1.2c0.2-0.8,0.8-1.3,1.5-1.3
			C256.8,45,257.1,45.1,257.3,45.2z"/>
		<path d="M266.1,47.6c0,1.5-1.1,2.6-2.5,2.6c-0.8,0-1.6-0.4-2-1.1v3.4H261v-7.3h0.7v1c0.4-0.7,1.1-1.1,2-1.1
			C265,45,266.1,46.1,266.1,47.6z M265.5,47.6c0-1.1-0.8-2-1.9-2c-1,0-1.9,0.8-1.9,1.9c0,1.2,0.9,2,1.9,2
			C264.6,49.6,265.5,48.7,265.5,47.6z"/>
		<path d="M271.6,45.2h0.7v4.9h-0.7v-1c-0.4,0.7-1.1,1.2-2,1.2c-1.3,0-2.5-1.1-2.5-2.6c0-1.4,1.1-2.6,2.5-2.6c0.8,0,1.6,0.4,2,1.1
			V45.2z M271.6,47.6c0-1.2-0.9-2-1.9-2c-1,0-1.9,0.9-1.9,1.9c0,1.1,0.8,2,1.9,2C270.7,49.6,271.6,48.7,271.6,47.6z"/>
		<path d="M277,45.2l-0.1,0.6c-0.3-0.1-0.5-0.1-0.7-0.1c-1.2,0-1.5,1.3-1.5,2.5v1.9H274v-4.9h0.7v1.2c0.2-0.8,0.8-1.3,1.5-1.3
			C276.5,45,276.8,45.1,277,45.2z"/>
		<path d="M281.6,49.4h3.1v0.7h-3.8v-7.3h0.7V49.4z"/>
		<path d="M286.7,49.4h3.1v0.7H286v-7.3h0.7V49.4z"/>
		<path d="M290.6,46.5c0-2.1,1.6-3.8,3.7-3.8c1,0,1.9,0.4,2.6,1.1l-0.5,0.4c-0.5-0.5-1.3-0.9-2.1-0.9c-1.7,0-3,1.4-3,3.1
			s1.3,3.1,3,3.1c0.8,0,1.6-0.3,2.1-0.9l0.5,0.4c-0.6,0.7-1.6,1.1-2.6,1.1C292.2,50.2,290.6,48.5,290.6,46.5z"/>
		<path d="M297.9,49.7c0-0.3,0.2-0.5,0.5-0.5c0.3,0,0.5,0.2,0.5,0.5c0,0.3-0.2,0.5-0.5,0.5C298.2,50.2,297.9,50,297.9,49.7z"/>
	</g>
</g>
</svg>
